<?xml version="1.0" encoding="utf-8"?>
<!-- Generator: Adobe Illustrator 27.0.0, SVG Export Plug-In . SVG Version: 6.00 Build 0)  -->
<svg version="1.1" id="Layer_1" xmlns="http://www.w3.org/2000/svg" xmlns:xlink="http://www.w3.org/1999/xlink" x="0px" y="0px"
	 viewBox="0 0 800 180" style="enable-background:new 0 0 800 180;" xml:space="preserve">
<style type="text/css">
	.st0{fill:#FFFFFF;}
</style>
<g id="Layer_1_1_">
	<g id="svg_51">
		<g id="svg_41" transform="matrix(3.27559 0 0 3.27559 -104470 -79288)">
			<g id="svg_42">
				<path id="svg_43" class="st0" d="M31900,24258.6h-5.7v-50.6h5.7V24258.6z"/>
			</g>
			<g id="svg_44">
				<path id="svg_45" class="st0" d="M31954.4,24258.6h-6l-0.2-0.3c-2.6-3.8-22.3-33.1-27.8-41.2v41.5h-5.7v-50.6h5.7l0.2,0.3
					c2.6,3.8,22.6,33.3,28,41.5v-41.9h5.7L31954.4,24258.6L31954.4,24258.6L31954.4,24258.6z"/>
			</g>
			<g id="svg_46">
				<path id="svg_47" class="st0" d="M32066,24258.5h-12.6v-50.5h12.6c13.9,0,25.3,11.3,25.3,25.3
					C32091.2,24247.2,32079.9,24258.5,32066,24258.5z M32059.2,24252.8h6.8c10.8,0,19.5-8.8,19.5-19.5s-8.7-19.5-19.5-19.5h-6.8
					V24252.8z"/>
			</g>
			<polygon id="svg_48" class="st0" points="32009.2,24208 31974.7,24251.4 31974.7,24208 31969.1,24208 31969.1,24258.6 
				31975.2,24258.6 32015.2,24208 			"/>
			<polygon id="svg_49" class="st0" points="32032.6,24208 31992.5,24258.6 31998.6,24258.6 32033.1,24215.2 32033.1,24258.6 
				32038.7,24258.6 32038.7,24208 			"/>
			<polygon id="svg_50" class="st0" points="32136.7,24208 32102.5,24208 32102.5,24258.6 32136.7,24258.6 32136.7,24253.5 
				32108.2,24253.5 32108.2,24235.8 32133.3,24235.8 32133.3,24230.8 32108.2,24230.8 32108.2,24213.1 32136.7,24213.1 			"/>
		</g>
	</g>
</g>
</svg>
